<svg xmlns="http://www.w3.org/2000/svg" width="536" height="79.503" viewBox="0 0 536 79.503">
  <g id="Gruppe_25" data-name="Gruppe 25" transform="translate(-119.783 -312.683)">
    <g id="Gruppe_2" data-name="Gruppe 2" transform="translate(443.351 382.091)">
      <g id="Gruppe_1" data-name="Gruppe 1" transform="translate(0)">
        <path id="Pfad_1" data-name="Pfad 1" d="M767.307,443.406l-55.61-.021v-3.733l55.615.021Z" transform="translate(-711.697 -439.653)" fill="#fda984"/>
      </g>
    </g>
    <g id="Gruppe_4" data-name="Gruppe 4" transform="translate(315.163 382.09)">
      <g id="Gruppe_3" data-name="Gruppe 3" transform="translate(0)">
        <path id="Pfad_2" data-name="Pfad 2" d="M532.81,443.405l-55.612-.021,0-3.733,55.613.021Z" transform="translate(-477.198 -439.652)" fill="#fda984"/>
      </g>
    </g>
    <g id="Gruppe_8" data-name="Gruppe 8" transform="translate(377.484 368.904)">
      <g id="Gruppe_5" data-name="Gruppe 5" transform="translate(39.639 0)">
        <path id="Pfad_3" data-name="Pfad 3" d="M680.084,436.189a8.225,8.225,0,0,1-5.138,1.669,4.221,4.221,0,0,1-2.705-.763c-.015-.01-.469-.366-.586-.471a6.178,6.178,0,0,1-1.924-3.744c-.032-.215-.174-1.488-.174-1.924v-8.008c0-.4.128-1.591.158-1.8.413-2.753,2.38-4.841,4.748-4.841,2.393,0,4.373,2.129,4.76,4.923.025.186.147,1.326.147,1.72v1.5a2.656,2.656,0,0,0,1.821.662,2.6,2.6,0,0,0,1.95-.758,3.02,3.02,0,0,0,.738-2.19,5.4,5.4,0,0,0-1.192-3.425,7.818,7.818,0,0,0-3.23-2.364,11.7,11.7,0,0,0-4.51-.845,11.525,11.525,0,0,0-5.508,1.366,10.605,10.605,0,0,0-4.14,4.011,11.926,11.926,0,0,0-1.582,6.244,12.25,12.25,0,0,0,1.5,6.092,10.585,10.585,0,0,0,4.055,4.118,11.279,11.279,0,0,0,5.679,1.452,9.092,9.092,0,0,0,5.831-1.908,8.244,8.244,0,0,0,3.014-5.116h-1A7,7,0,0,1,680.084,436.189Z" transform="translate(-663.717 -415.53)" fill="#fda984"/>
      </g>
      <g id="Gruppe_6" data-name="Gruppe 6" transform="translate(0 0.03)">
        <path id="Pfad_4" data-name="Pfad 4" d="M609.17,438.784l-17.966,0v-1.592l2.541-.413V417.6l-2.541-.387v-1.624h9.215v1.624l-2.541.387v19.428h7.115a3.734,3.734,0,0,0,1.282-.6,3.635,3.635,0,0,0,1.2-2.239l.085-.44,1.623-.008Z" transform="translate(-591.204 -415.584)" fill="#fda984"/>
      </g>
      <g id="Gruppe_7" data-name="Gruppe 7" transform="translate(20.34 0.075)">
        <path id="Pfad_5" data-name="Pfad 5" d="M646.379,438.868l-17.967,0v-1.592l2.542-.414V417.678l-2.542-.386v-1.625h9.215v1.625l-2.541.386v19.428H642.2a3.728,3.728,0,0,0,1.282-.6,3.631,3.631,0,0,0,1.2-2.239l.085-.44,1.624-.008Z" transform="translate(-628.412 -415.667)" fill="#fda984"/>
      </g>
    </g>
    <g id="Gruppe_17" data-name="Gruppe 17" transform="translate(119.783 331.398)">
      <g id="Gruppe_9" data-name="Gruppe 9" transform="translate(137.96 0.208)">
        <path id="Pfad_6" data-name="Pfad 6" d="M412.851,383.762h-16.53V381.41l4.027-.671V357.577a8.5,8.5,0,0,0-1.3-5.079,4.157,4.157,0,0,0-3.038-1.637l-11.345,6.513v23.366l4.027.671v2.352h-16.53V381.4l4.7-.672V350.39l-4.7-.671v-2.363h12.5v7.581L398.5,347.3a8.852,8.852,0,0,1,6.675,2.548c1.973,1.713,2.974,4.268,2.974,7.6v23.285l4.7.672Z" transform="translate(-372.159 -347.299)" fill="#fda984"/>
      </g>
      <g id="Gruppe_11" data-name="Gruppe 11" transform="translate(181.349 0.348)">
        <g id="Gruppe_10" data-name="Gruppe 10">
          <path id="Pfad_7" data-name="Pfad 7" d="M469.126,383.993a17.759,17.759,0,0,1-8.892-2.276,16.671,16.671,0,0,1-6.361-6.461,19.2,19.2,0,0,1-2.341-9.515,18.731,18.731,0,0,1,2.48-9.759,16.706,16.706,0,0,1,6.5-6.29,18.1,18.1,0,0,1,8.617-2.137,18.344,18.344,0,0,1,7.054,1.324,12.47,12.47,0,0,1,5.124,3.755,8.771,8.771,0,0,1,1.926,5.538,5.118,5.118,0,0,1-1.274,3.705,4.485,4.485,0,0,1-3.354,1.317,4.578,4.578,0,0,1-3.127-1.142l-.185-.163v-2.524c0-.565-.179-2.264-.216-2.538-.56-4.055-3.371-7-6.683-7-3.265,0-6.069,2.894-6.667,6.881-.051.339-.234,2.1-.234,2.655v12.158c0,.607.206,2.5.256,2.839a8.821,8.821,0,0,0,2.743,5.357c.152.135.794.639.857.687a5.936,5.936,0,0,0,3.778,1.048,12.019,12.019,0,0,0,7.468-2.423,10.135,10.135,0,0,0,3.909-6.348l.085-.444h2.626l-.123.648a13.109,13.109,0,0,1-4.772,8.093A14.4,14.4,0,0,1,469.126,383.993Z" transform="translate(-451.532 -347.555)" fill="#fda984"/>
        </g>
      </g>
      <g id="Gruppe_12" data-name="Gruppe 12" transform="translate(0 0.443)">
        <path id="Pfad_8" data-name="Pfad 8" d="M137.377,384.169a17.766,17.766,0,0,1-8.892-2.276,16.678,16.678,0,0,1-6.361-6.461,19.2,19.2,0,0,1-2.341-9.515,18.736,18.736,0,0,1,2.48-9.76,16.71,16.71,0,0,1,6.5-6.29,18.1,18.1,0,0,1,8.617-2.137,18.333,18.333,0,0,1,7.054,1.325,13.967,13.967,0,0,1,5.1,3.727c2.436,2.694,3.229,7.092,3.16,10.309l-.013,3.68-5.332-.038h-17.6V371.7c0,.607.206,2.5.256,2.84a8.815,8.815,0,0,0,2.743,5.356c.152.134.792.638.858.688a5.941,5.941,0,0,0,3.777,1.047,12.02,12.02,0,0,0,7.468-2.422,10.138,10.138,0,0,0,3.909-6.348l.084-.444h2.626l-.122.648a13.108,13.108,0,0,1-4.772,8.093A14.4,14.4,0,0,1,137.377,384.169Zm-7.634-19.53h13.8v-5.1c0-.56-.18-2.275-.216-2.538-.56-4.055-3.372-7-6.683-7-3.265,0-6.069,2.894-6.667,6.881-.051.341-.233,2.109-.233,2.655Z" transform="translate(-119.783 -347.73)" fill="#fda984"/>
      </g>
      <g id="Gruppe_13" data-name="Gruppe 13" transform="translate(102.041 0.443)">
        <path id="Pfad_9" data-name="Pfad 9" d="M324.044,384.169a17.766,17.766,0,0,1-8.892-2.276,16.678,16.678,0,0,1-6.361-6.461,19.2,19.2,0,0,1-2.341-9.515,18.735,18.735,0,0,1,2.48-9.76,16.71,16.71,0,0,1,6.5-6.29,18.1,18.1,0,0,1,8.617-2.137,18.333,18.333,0,0,1,7.055,1.325,13.967,13.967,0,0,1,5.1,3.727c2.436,2.694,3.229,7.092,3.16,10.309l-.013,3.68-5.332-.038h-17.6V371.7c0,.607.206,2.5.256,2.84a8.815,8.815,0,0,0,2.743,5.356c.151.134.792.638.858.688a5.941,5.941,0,0,0,3.777,1.047,12.02,12.02,0,0,0,7.468-2.422,10.139,10.139,0,0,0,3.909-6.348l.084-.444h2.626l-.122.648a13.108,13.108,0,0,1-4.772,8.093A14.4,14.4,0,0,1,324.044,384.169Zm-7.634-19.53h13.8v-5.1c0-.56-.18-2.275-.216-2.538-.56-4.055-3.372-7-6.683-7-3.265,0-6.069,2.894-6.667,6.881-.051.341-.233,2.109-.233,2.655Z" transform="translate(-306.45 -347.73)" fill="#fda984"/>
      </g>
      <g id="Gruppe_14" data-name="Gruppe 14" transform="translate(218.477 0.261)">
        <path id="Pfad_10" data-name="Pfad 10" d="M537.044,383.836a17.767,17.767,0,0,1-8.892-2.276,16.679,16.679,0,0,1-6.361-6.461,19.2,19.2,0,0,1-2.341-9.515,18.732,18.732,0,0,1,2.48-9.76,16.7,16.7,0,0,1,6.5-6.29,18.094,18.094,0,0,1,8.617-2.137,18.334,18.334,0,0,1,7.055,1.325,13.956,13.956,0,0,1,5.1,3.726c2.435,2.694,3.229,7.092,3.16,10.309l-.013,3.68-5.332-.038h-17.6v4.965c0,.605.207,2.5.257,2.839a8.809,8.809,0,0,0,2.742,5.357c.155.137.81.652.858.689a5.941,5.941,0,0,0,3.776,1.046,12.019,12.019,0,0,0,7.468-2.422,10.138,10.138,0,0,0,3.908-6.348l.085-.444h2.625l-.122.648a13.1,13.1,0,0,1-4.772,8.093A14.4,14.4,0,0,1,537.044,383.836Zm-7.634-19.53h13.8v-5.1c0-.566-.18-2.276-.216-2.537-.56-4.055-3.372-7-6.683-7-3.265,0-6.069,2.894-6.667,6.881-.043.29-.233,2.09-.233,2.655Z" transform="translate(-519.45 -347.397)" fill="#fda984"/>
      </g>
      <g id="Gruppe_15" data-name="Gruppe 15" transform="translate(38.935)">
        <path id="Pfad_11" data-name="Pfad 11" d="M193.9,384.078h-2.892V372.735h3.331l.087.723a8.539,8.539,0,0,0,2.368,5.317c2,1.927,5.718,2.077,6.809,2.077.172,0,.27,0,.277,0a11.863,11.863,0,0,0,4.668-.823,6.536,6.536,0,0,0,2.787-2.065l.079-.109c.611-.838.817-1.12.817-1.824a2.205,2.205,0,0,0-.844-1.861,14.853,14.853,0,0,0-4.012-1.909l-9.251-3.852a11.447,11.447,0,0,1-5.2-3.544,9.454,9.454,0,0,1-1.819-5.968,11.891,11.891,0,0,1,3.256-8.532c1.934-2.018,4.709-3.027,9.283-3.374a21.718,21.718,0,0,1,7.405,1.092c.211.071.406.147.586.218l.185.072a8.207,8.207,0,0,0,1.083.37.734.734,0,0,0,.58-.257,1.327,1.327,0,0,0,.341-.819l.07-.742h2.865v10.807h-2.8l-.129-.664A8.65,8.65,0,0,0,211,351.8a10.548,10.548,0,0,0-6.1-1.918c-.232,0-.459.009-.678.027-2.988.251-4.89.8-6.359,1.851a3.529,3.529,0,0,0-1.551,1.947l-.042.187a3.248,3.248,0,0,0,.674,2.689,15.484,15.484,0,0,0,4.032,2.217l9.817,4.218a9.3,9.3,0,0,1,6.028,9.058l0,.032c0,.114.01.226.01.343a10.829,10.829,0,0,1-3.488,8.269c-2.2,2.048-5.243,3.125-9.03,3.2a35.324,35.324,0,0,1-6.694-.923,10.538,10.538,0,0,0-2.4-.4c-.332,0-.758.11-1.112.972Z" transform="translate(-191.009 -346.919)" fill="#fda984"/>
      </g>
      <g id="Gruppe_16" data-name="Gruppe 16" transform="translate(70.641)">
        <path id="Pfad_12" data-name="Pfad 12" d="M251.9,384.078h-2.892V372.735h3.331l.087.723a8.539,8.539,0,0,0,2.368,5.317c2,1.927,5.718,2.077,6.809,2.077.172,0,.27,0,.277,0a11.863,11.863,0,0,0,4.668-.823,6.537,6.537,0,0,0,2.787-2.065l.079-.109c.611-.838.817-1.12.817-1.824a2.205,2.205,0,0,0-.844-1.861,14.854,14.854,0,0,0-4.012-1.909l-9.251-3.852a11.446,11.446,0,0,1-5.2-3.544,9.454,9.454,0,0,1-1.819-5.968,11.891,11.891,0,0,1,3.256-8.532c1.934-2.018,4.709-3.027,9.283-3.374a21.719,21.719,0,0,1,7.405,1.092c.211.071.406.147.586.218l.185.072a8.208,8.208,0,0,0,1.083.37.734.734,0,0,0,.58-.257,1.328,1.328,0,0,0,.341-.819l.07-.742h2.865v10.807h-2.795l-.129-.664A8.65,8.65,0,0,0,269,351.8a10.548,10.548,0,0,0-6.1-1.918c-.232,0-.459.009-.678.027-2.988.251-4.89.8-6.359,1.851a3.529,3.529,0,0,0-1.551,1.947l-.042.187a3.247,3.247,0,0,0,.674,2.689,15.482,15.482,0,0,0,4.032,2.217l9.817,4.218a9.3,9.3,0,0,1,6.028,9.058l0,.032c0,.114.01.226.01.343a10.829,10.829,0,0,1-3.488,8.269c-2.2,2.048-5.243,3.125-9.03,3.2a35.323,35.323,0,0,1-6.694-.923,10.538,10.538,0,0,0-2.4-.4c-.332,0-.758.11-1.112.972Z" transform="translate(-249.009 -346.919)" fill="#fda984"/>
      </g>
    </g>
    <g id="Gruppe_19" data-name="Gruppe 19" transform="translate(608.124 312.683)">
      <g id="Gruppe_18" data-name="Gruppe 18">
        <path id="Pfad_13" data-name="Pfad 13" d="M1030.889,368.073h-17.766v-2.854l4.936-.659V316.2l-4.936-.659v-2.853h13.159v51.884l4.607.659Z" transform="translate(-1013.123 -312.683)" fill="#fda984"/>
      </g>
    </g>
    <g id="Gruppe_20" data-name="Gruppe 20" transform="translate(508.727 331.568)">
      <path id="Pfad_14" data-name="Pfad 14" d="M848.886,383.669a17.765,17.765,0,0,1-8.892-2.276,16.673,16.673,0,0,1-6.361-6.461,19.2,19.2,0,0,1-2.341-9.515,18.73,18.73,0,0,1,2.48-9.76,16.713,16.713,0,0,1,6.5-6.29,18.1,18.1,0,0,1,8.617-2.137,18.339,18.339,0,0,1,7.054,1.325,13.959,13.959,0,0,1,5.1,3.726c2.436,2.694,3.23,7.092,3.16,10.309l-.014,3.68-5.332-.038h-17.6V371.2c0,.606.207,2.5.256,2.84a8.815,8.815,0,0,0,2.742,5.356c.151.134.8.642.857.687a5.94,5.94,0,0,0,3.778,1.048,12.018,12.018,0,0,0,7.468-2.422,10.141,10.141,0,0,0,3.909-6.348l.085-.444h2.625l-.123.648a13.1,13.1,0,0,1-4.771,8.094A14.4,14.4,0,0,1,848.886,383.669Zm-7.633-19.53h13.8v-5.1c0-.542-.175-2.232-.217-2.536-.561-4.056-3.372-7-6.683-7-3.265,0-6.068,2.894-6.667,6.881-.044.3-.233,2.084-.233,2.655Z" transform="translate(-831.292 -347.23)" fill="#fda984"/>
    </g>
    <g id="Gruppe_21" data-name="Gruppe 21" transform="translate(443.329 331.652)">
      <path id="Pfad_15" data-name="Pfad 15" d="M752.132,383.8H735.354V380.97l3.949-.659V357.836a8.073,8.073,0,0,0-1.223-4.813,3.776,3.776,0,0,0-2.692-1.481l-10.9,6.258v22.511l3.949.659V383.8H711.658v-2.848l4.608-.659v-29.27l-4.608-.659v-2.848h12.83v7.238l13.458-7.28a8.972,8.972,0,0,1,6.563,2.565,8.371,8.371,0,0,1,2.546,4.123l12.586-6.78a8.968,8.968,0,0,1,6.564,2.566c2,1.736,3.015,4.315,3.015,7.663V380.2l4.607.659v2.847H757.05v-2.831l3.949-.659V357.744a8.073,8.073,0,0,0-1.223-4.813,3.775,3.775,0,0,0-2.692-1.481l-9.58,5.5c.014.265.021.514.021.755v22.589l4.607.659Z" transform="translate(-711.658 -347.384)" fill="#fda984"/>
    </g>
    <g id="Gruppe_22" data-name="Gruppe 22" transform="translate(629.958 331.08)">
      <path id="Pfad_16" data-name="Pfad 16" d="M1055.957,383.5h-2.892V372.155h3.331l.086.722a8.542,8.542,0,0,0,2.367,5.317c2,1.927,5.719,2.077,6.81,2.077.172,0,.271,0,.276,0a11.862,11.862,0,0,0,4.668-.823,6.53,6.53,0,0,0,2.788-2.065l.079-.108c.612-.839.817-1.121.817-1.825a2.205,2.205,0,0,0-.844-1.861,14.836,14.836,0,0,0-4.012-1.909l-9.252-3.852a11.445,11.445,0,0,1-5.2-3.544,9.457,9.457,0,0,1-1.819-5.968,11.893,11.893,0,0,1,3.256-8.532c1.933-2.018,4.71-3.027,9.283-3.374a21.719,21.719,0,0,1,7.406,1.092c.209.071.4.146.581.216l.19.074a8.253,8.253,0,0,0,1.083.37.736.736,0,0,0,.58-.258,1.329,1.329,0,0,0,.34-.818l.071-.743h2.865v10.807h-2.8l-.128-.664a8.655,8.655,0,0,0-2.83-5.262,10.546,10.546,0,0,0-6.1-1.918c-.232,0-.459.009-.678.027-2.987.251-4.889.8-6.359,1.851a3.53,3.53,0,0,0-1.551,1.947l-.042.188A3.246,3.246,0,0,0,1059,356a15.5,15.5,0,0,0,4.032,2.217l9.816,4.218a9.3,9.3,0,0,1,6.029,9.058l0,.033c.006.111.01.224.01.341a10.829,10.829,0,0,1-3.488,8.269c-2.2,2.048-5.242,3.125-9.03,3.2a35.326,35.326,0,0,1-6.694-.923,10.554,10.554,0,0,0-2.4-.4c-.331,0-.758.111-1.112.973Z" transform="translate(-1053.065 -346.338)" fill="#fda984"/>
    </g>
    <g id="Gruppe_23" data-name="Gruppe 23" transform="translate(569.096 331.194)">
      <path id="Pfad_17" data-name="Pfad 17" d="M977.743,383.35H964.936l-.008-.981a15.648,15.648,0,0,1-5.607.981,17.761,17.761,0,0,1-8.893-2.276,16.667,16.667,0,0,1-6.36-6.46,19.2,19.2,0,0,1-2.341-9.515,18.729,18.729,0,0,1,2.48-9.759,16.71,16.71,0,0,1,6.5-6.29,18.1,18.1,0,0,1,8.617-2.137,19.034,19.034,0,0,1,5.591.8l-.016-.589-.03-.576h8.269v33.3l4.607.659Zm-19.154-34.167c-3.264,0-6.068,2.894-6.667,6.881-.044.3-.233,2.084-.233,2.655v12.158c0,.605.207,2.5.257,2.84a8.816,8.816,0,0,0,2.742,5.356c.152.134.8.642.857.687a5.938,5.938,0,0,0,3.778,1.048,12.405,12.405,0,0,0,5.591-1.253V354.578C963.907,351.348,961.373,349.184,958.589,349.184Z" transform="translate(-941.728 -346.546)" fill="#fda984"/>
    </g>
    <g id="Gruppe_24" data-name="Gruppe 24" transform="translate(543.826 325.212)">
      <path id="Pfad_18" data-name="Pfad 18" d="M911.539,378.711a11.057,11.057,0,0,1-7.3-2.3c-1.855-1.55-2.8-4.017-2.8-7.331V343.6H895.5v-2.187h5.948v-3.89l7.675-1.92v5.81h5.919V343.6h-5.919V368.95c0,4.327,1.457,6.43,4.455,6.43a5.578,5.578,0,0,0,1.829-.3,8.021,8.021,0,0,0,1.415-.613,4.149,4.149,0,0,0,.584-.377l.428-.4.382.447,1.185,1.458-.391.348A10.9,10.9,0,0,1,911.539,378.711Z" transform="translate(-895.5 -335.602)" fill="#fda984"/>
    </g>
    <path id="Pfad_19" data-name="Pfad 19" d="M923.422,336.883" transform="translate(-364.333 -10.971)" fill="#fda984"/>
  </g>
</svg>
